<svg width="1673" height="1255" viewBox="0 0 1673 1255" fill="none" xmlns="http://www.w3.org/2000/svg">
<rect width="1673" height="1255" fill="#FAF3F3"/>
<path d="M574.469 684V674.156L582.906 672.984L622.672 570.25H635.875L674.938 672.984L683.297 674.156V684H650.641V674.156L659.234 672.672L651.734 651.734H606.188L598.453 672.672L607.047 674.156V684H574.469ZM610.953 638.844H647.047L630.328 592.594L629.391 590.016H628.922L627.984 592.594L610.953 638.844ZM693.844 684V674.156L706.578 671.969V574.234L693.844 572.047V562.125H721.969V671.969L734.703 674.156V684H693.844ZM782.047 718.141C777.984 718.141 773.583 717.568 768.844 716.422C764.104 715.328 759.938 713.818 756.344 711.891L760.328 699.938C763.193 701.448 766.578 702.698 770.484 703.688C774.391 704.677 778.193 705.172 781.891 705.172C788.766 705.172 793.792 703.245 796.969 699.391C800.198 695.536 801.812 690.042 801.812 682.906V674.859C799.052 678.401 795.745 681.083 791.891 682.906C788.036 684.729 783.609 685.641 778.609 685.641C771.734 685.641 765.797 683.948 760.797 680.562C755.797 677.125 751.943 672.359 749.234 666.266C746.578 660.12 745.25 653.01 745.25 644.938V643.297C745.25 634.234 746.578 626.292 749.234 619.469C751.943 612.646 755.797 607.359 760.797 603.609C765.797 599.807 771.786 597.906 778.766 597.906C784.078 597.906 788.74 598.948 792.75 601.031C796.76 603.115 800.12 606.135 802.828 610.094L804.234 599.469H817.203V682.906C817.203 690.198 815.823 696.474 813.062 701.734C810.354 706.995 806.37 711.031 801.109 713.844C795.901 716.708 789.547 718.141 782.047 718.141ZM782.438 673.141C787.073 673.141 790.953 672.099 794.078 670.016C797.203 667.88 799.781 664.885 801.812 661.031V622.125C799.833 618.531 797.255 615.693 794.078 613.609C790.901 611.474 787.073 610.406 782.594 610.406C777.698 610.406 773.609 611.812 770.328 614.625C767.099 617.438 764.677 621.318 763.062 626.266C761.448 631.161 760.641 636.839 760.641 643.297V644.938C760.641 653.427 762.438 660.25 766.031 665.406C769.625 670.562 775.094 673.141 782.438 673.141ZM814.859 612.047L808.844 599.469H827.672V609.312L814.859 612.047ZM873.141 685.641C865.328 685.641 858.583 683.818 852.906 680.172C847.281 676.474 842.932 671.396 839.859 664.938C836.786 658.427 835.25 651.005 835.25 642.672V640.953C835.25 632.62 836.786 625.224 839.859 618.766C842.932 612.255 847.281 607.151 852.906 603.453C858.583 599.755 865.276 597.906 872.984 597.906C880.797 597.906 887.516 599.755 893.141 603.453C898.818 607.151 903.193 612.229 906.266 618.688C909.339 625.146 910.875 632.568 910.875 640.953V642.672C910.875 651.057 909.339 658.505 906.266 665.016C903.193 671.474 898.844 676.526 893.219 680.172C887.594 683.818 880.901 685.641 873.141 685.641ZM873.141 673.609C878.036 673.609 882.125 672.281 885.406 669.625C888.74 666.917 891.24 663.245 892.906 658.609C894.625 653.922 895.484 648.609 895.484 642.672V640.953C895.484 635.016 894.625 629.729 892.906 625.094C891.24 620.406 888.74 616.734 885.406 614.078C882.073 611.37 877.932 610.016 872.984 610.016C868.089 610.016 863.974 611.37 860.641 614.078C857.307 616.734 854.807 620.406 853.141 625.094C851.474 629.729 850.641 635.016 850.641 640.953V642.672C850.641 648.609 851.474 653.922 853.141 658.609C854.807 663.245 857.307 666.917 860.641 669.625C864.026 672.281 868.193 673.609 873.141 673.609ZM922.594 684V674.156L935.328 671.969V611.578L922.594 609.391V599.469H949.078L950.406 610.25L950.562 611.734C952.958 607.411 955.901 604.026 959.391 601.578C962.932 599.13 966.969 597.906 971.5 597.906C973.115 597.906 974.755 598.062 976.422 598.375C978.141 598.635 979.365 598.896 980.094 599.156L978.062 613.453L967.359 612.828C963.297 612.568 959.885 613.505 957.125 615.641C954.365 617.724 952.229 620.536 950.719 624.078V671.969L963.453 674.156V684H922.594ZM988.922 684V674.156L1001.66 671.969V611.578L988.922 609.391V599.469H1017.05V671.969L1029.78 674.156V684H988.922ZM1000.88 578.609V562.125H1017.05V578.609H1000.88ZM1070.25 685.328C1064 685.328 1059.03 683.505 1055.33 679.859C1051.68 676.161 1049.86 670.276 1049.86 662.203V610.875H1036.5V599.469H1049.86V579.078H1065.25V599.469H1083.61V610.875H1065.25V662.203C1065.25 666.266 1066.06 669.26 1067.67 671.188C1069.29 673.115 1071.45 674.078 1074.16 674.078C1075.98 674.078 1078.01 673.922 1080.25 673.609C1082.49 673.245 1084.23 672.932 1085.48 672.672L1087.59 682.75C1085.35 683.427 1082.59 684.026 1079.31 684.547C1076.08 685.068 1073.06 685.328 1070.25 685.328ZM1095.48 684V674.156L1108.22 671.969V574.234L1095.48 572.047V562.125H1123.61V610.719C1126.53 606.656 1130.09 603.505 1134.31 601.266C1138.53 599.026 1143.22 597.906 1148.38 597.906C1157.44 597.906 1164.47 600.615 1169.47 606.031C1174.47 611.448 1176.97 619.781 1176.97 631.031V671.969L1189.7 674.156V684H1148.84V674.156L1161.58 671.969V630.875C1161.58 623.896 1160.07 618.74 1157.05 615.406C1154.08 612.073 1149.62 610.406 1143.69 610.406C1139.47 610.406 1135.61 611.422 1132.12 613.453C1128.69 615.432 1125.85 618.141 1123.61 621.578V671.969L1136.34 674.156V684H1095.48ZM1200.25 684V674.156L1212.98 671.969V611.578L1200.25 609.391V599.469H1226.81L1227.83 610.484C1230.54 606.474 1234.03 603.375 1238.3 601.188C1242.57 599 1247.52 597.906 1253.14 597.906C1258.77 597.906 1263.58 599.208 1267.59 601.812C1271.66 604.417 1274.7 608.323 1276.73 613.531C1279.39 608.74 1282.91 604.938 1287.28 602.125C1291.66 599.312 1296.76 597.906 1302.59 597.906C1311.24 597.906 1318.06 600.875 1323.06 606.812C1328.06 612.698 1330.56 621.578 1330.56 633.453V671.969L1343.3 674.156V684H1302.36V674.156L1315.09 671.969V633.297C1315.09 624.964 1313.66 619.078 1310.8 615.641C1307.93 612.151 1303.69 610.406 1298.06 610.406C1292.7 610.406 1288.38 612.307 1285.09 616.109C1281.86 619.859 1279.99 624.599 1279.47 630.328V671.969L1292.2 674.156V684H1251.34V674.156L1264.08 671.969V633.297C1264.08 625.38 1262.59 619.599 1259.62 615.953C1256.71 612.255 1252.46 610.406 1246.89 610.406C1242.2 610.406 1238.35 611.37 1235.33 613.297C1232.31 615.224 1229.99 617.932 1228.38 621.422V671.969L1241.11 674.156V684H1200.25ZM1401.27 684L1363.14 581.422L1354.08 580.172V570.25H1390.02V580.172L1379.62 581.812L1405.09 654.156L1407.75 663.141H1408.22L1411.03 654.156L1437.44 581.734L1425.88 580.172V570.25H1461.73V580.172L1452.59 581.422L1414.47 684H1401.27ZM1473.14 684V674.156L1485.88 671.969V582.359L1473.14 580.172V570.25H1514V580.172L1501.27 582.359V671.969L1514 674.156V684H1473.14ZM1567.75 685.641C1560.82 685.641 1554.16 684.625 1547.75 682.594C1541.34 680.562 1535.22 677.438 1529.39 673.219V648.922H1541.34L1543.92 666.812C1547.31 668.896 1550.98 670.51 1554.94 671.656C1558.9 672.802 1563.17 673.375 1567.75 673.375C1572.96 673.375 1577.36 672.594 1580.95 671.031C1584.6 669.417 1587.39 667.203 1589.31 664.391C1591.24 661.578 1592.2 658.297 1592.2 654.547C1592.2 651.057 1591.37 647.984 1589.7 645.328C1588.04 642.672 1585.28 640.354 1581.42 638.375C1577.62 636.344 1572.41 634.573 1565.8 633.062C1557.98 631.24 1551.37 628.818 1545.95 625.797C1540.59 622.724 1536.5 619.026 1533.69 614.703C1530.93 610.328 1529.55 605.328 1529.55 599.703C1529.55 593.766 1531.11 588.453 1534.23 583.766C1537.41 579.078 1541.81 575.38 1547.44 572.672C1553.06 569.964 1559.62 568.609 1567.12 568.609C1575.09 568.609 1582.12 569.833 1588.22 572.281C1594.36 574.677 1599.42 577.594 1603.38 581.031V603.766H1591.42L1588.84 587.516C1586.5 585.641 1583.58 584.078 1580.09 582.828C1576.6 581.578 1572.28 580.953 1567.12 580.953C1562.75 580.953 1558.9 581.734 1555.56 583.297C1552.23 584.807 1549.62 586.943 1547.75 589.703C1545.88 592.464 1544.94 595.719 1544.94 599.469C1544.94 602.75 1545.77 605.615 1547.44 608.062C1549.16 610.51 1551.92 612.672 1555.72 614.547C1559.57 616.37 1564.7 618.089 1571.11 619.703C1583.09 622.672 1592.15 627.073 1598.3 632.906C1604.49 638.688 1607.59 645.849 1607.59 654.391C1607.59 660.484 1605.95 665.901 1602.67 670.641C1599.39 675.328 1594.76 679 1588.77 681.656C1582.83 684.312 1575.82 685.641 1567.75 685.641Z" fill="#545454"/>
<rect x="111" y="634" width="61" height="152" fill="#2C7BD4"/>
<rect x="358" y="451" width="61" height="335" fill="#2C7BD4"/>
<rect x="440" y="390" width="61" height="396" fill="#2C7BD4"/>
<rect x="276" y="512" width="60" height="274" fill="#2C7BD4"/>
<rect x="193" y="573" width="61" height="213" fill="#2C7BD4"/>
</svg>
