<svg id="visual" viewBox="0 0 900 600" width="900" height="600" xmlns="http://www.w3.org/2000/svg" xmlns:xlink="http://www.w3.org/1999/xlink" version="1.1"><rect x="0" y="0" width="900" height="600" fill="#090d10"></rect><path d="M0 429L21.5 415.7C43 402.3 86 375.7 128.8 375.5C171.7 375.3 214.3 401.7 257.2 418.2C300 434.7 343 441.3 385.8 439.7C428.7 438 471.3 428 514.2 413.8C557 399.7 600 381.3 642.8 372.5C685.7 363.7 728.3 364.3 771.2 375.2C814 386 857 407 878.5 417.5L900 428L900 601L878.5 601C857 601 814 601 771.2 601C728.3 601 685.7 601 642.8 601C600 601 557 601 514.2 601C471.3 601 428.7 601 385.8 601C343 601 300 601 257.2 601C214.3 601 171.7 601 128.8 601C86 601 43 601 21.5 601L0 601Z" fill="#1a1919"></path><path d="M0 450L21.5 452C43 454 86 458 128.8 449.2C171.7 440.3 214.3 418.7 257.2 421C300 423.3 343 449.7 385.8 451C428.7 452.3 471.3 428.7 514.2 420.2C557 411.7 600 418.3 642.8 424.2C685.7 430 728.3 435 771.2 429.8C814 424.7 857 409.3 878.5 401.7L900 394L900 601L878.5 601C857 601 814 601 771.2 601C728.3 601 685.7 601 642.8 601C600 601 557 601 514.2 601C471.3 601 428.7 601 385.8 601C343 601 300 601 257.2 601C214.3 601 171.7 601 128.8 601C86 601 43 601 21.5 601L0 601Z" fill="#221f1f"></path><path d="M0 482L21.5 481.5C43 481 86 480 128.8 475C171.7 470 214.3 461 257.2 458C300 455 343 458 385.8 457.2C428.7 456.3 471.3 451.7 514.2 458C557 464.3 600 481.7 642.8 487.5C685.7 493.3 728.3 487.7 771.2 487.5C814 487.3 857 492.7 878.5 495.3L900 498L900 601L878.5 601C857 601 814 601 771.2 601C728.3 601 685.7 601 642.8 601C600 601 557 601 514.2 601C471.3 601 428.7 601 385.8 601C343 601 300 601 257.2 601C214.3 601 171.7 601 128.8 601C86 601 43 601 21.5 601L0 601Z" fill="#2b2526"></path><path d="M0 537L21.5 536C43 535 86 533 128.8 532.3C171.7 531.7 214.3 532.3 257.2 531C300 529.7 343 526.3 385.8 522C428.7 517.7 471.3 512.3 514.2 508.8C557 505.3 600 503.7 642.8 506C685.7 508.3 728.3 514.7 771.2 518C814 521.3 857 521.7 878.5 521.8L900 522L900 601L878.5 601C857 601 814 601 771.2 601C728.3 601 685.7 601 642.8 601C600 601 557 601 514.2 601C471.3 601 428.7 601 385.8 601C343 601 300 601 257.2 601C214.3 601 171.7 601 128.8 601C86 601 43 601 21.5 601L0 601Z" fill="#342b2e"></path><path d="M0 540L21.5 538.3C43 536.7 86 533.3 128.8 532C171.7 530.7 214.3 531.3 257.2 534.7C300 538 343 544 385.8 548.8C428.7 553.7 471.3 557.3 514.2 555.7C557 554 600 547 642.8 547.5C685.7 548 728.3 556 771.2 558C814 560 857 556 878.5 554L900 552L900 601L878.5 601C857 601 814 601 771.2 601C728.3 601 685.7 601 642.8 601C600 601 557 601 514.2 601C471.3 601 428.7 601 385.8 601C343 601 300 601 257.2 601C214.3 601 171.7 601 128.8 601C86 601 43 601 21.5 601L0 601Z" fill="#3d3236"></path></svg>