<svg id="visual" viewBox="0 0 900 600" width="900" height="600" xmlns="http://www.w3.org/2000/svg" xmlns:xlink="http://www.w3.org/1999/xlink" version="1.1"><rect x="0" y="0" width="900" height="600" fill="#090d10"></rect><path d="M0 201L21.5 204.7C43 208.3 86 215.7 128.8 218.2C171.7 220.7 214.3 218.3 257.2 218.5C300 218.7 343 221.3 385.8 217.5C428.7 213.7 471.3 203.3 514.2 205.8C557 208.3 600 223.7 642.8 229.3C685.7 235 728.3 231 771.2 217.7C814 204.3 857 181.7 878.5 170.3L900 159L900 0L878.5 0C857 0 814 0 771.2 0C728.3 0 685.7 0 642.8 0C600 0 557 0 514.2 0C471.3 0 428.7 0 385.8 0C343 0 300 0 257.2 0C214.3 0 171.7 0 128.8 0C86 0 43 0 21.5 0L0 0Z" fill="#1a1919"></path><path d="M0 147L21.5 144.3C43 141.7 86 136.3 128.8 139.8C171.7 143.3 214.3 155.7 257.2 156.7C300 157.7 343 147.3 385.8 146.3C428.7 145.3 471.3 153.7 514.2 156.7C557 159.7 600 157.3 642.8 154C685.7 150.7 728.3 146.3 771.2 153.8C814 161.3 857 180.7 878.5 190.3L900 200L900 0L878.5 0C857 0 814 0 771.2 0C728.3 0 685.7 0 642.8 0C600 0 557 0 514.2 0C471.3 0 428.7 0 385.8 0C343 0 300 0 257.2 0C214.3 0 171.7 0 128.8 0C86 0 43 0 21.5 0L0 0Z" fill="#221f1f"></path><path d="M0 132L21.5 124.5C43 117 86 102 128.8 101C171.7 100 214.3 113 257.2 113.5C300 114 343 102 385.8 99.8C428.7 97.7 471.3 105.3 514.2 111.5C557 117.7 600 122.3 642.8 127.7C685.7 133 728.3 139 771.2 144C814 149 857 153 878.5 155L900 157L900 0L878.5 0C857 0 814 0 771.2 0C728.3 0 685.7 0 642.8 0C600 0 557 0 514.2 0C471.3 0 428.7 0 385.8 0C343 0 300 0 257.2 0C214.3 0 171.7 0 128.8 0C86 0 43 0 21.5 0L0 0Z" fill="#2b2526"></path><path d="M0 87L21.5 86.8C43 86.7 86 86.3 128.8 84.8C171.7 83.3 214.3 80.7 257.2 79.3C300 78 343 78 385.8 78.8C428.7 79.7 471.3 81.3 514.2 86.8C557 92.3 600 101.7 642.8 106.2C685.7 110.7 728.3 110.3 771.2 105.2C814 100 857 90 878.5 85L900 80L900 0L878.5 0C857 0 814 0 771.2 0C728.3 0 685.7 0 642.8 0C600 0 557 0 514.2 0C471.3 0 428.7 0 385.8 0C343 0 300 0 257.2 0C214.3 0 171.7 0 128.8 0C86 0 43 0 21.5 0L0 0Z" fill="#342b2e"></path><path d="M0 43L21.5 44.2C43 45.3 86 47.7 128.8 50.5C171.7 53.3 214.3 56.7 257.2 57.5C300 58.3 343 56.7 385.8 51.5C428.7 46.3 471.3 37.7 514.2 35.7C557 33.7 600 38.3 642.8 44.5C685.7 50.7 728.3 58.3 771.2 62C814 65.7 857 65.3 878.5 65.2L900 65L900 0L878.5 0C857 0 814 0 771.2 0C728.3 0 685.7 0 642.8 0C600 0 557 0 514.2 0C471.3 0 428.7 0 385.8 0C343 0 300 0 257.2 0C214.3 0 171.7 0 128.8 0C86 0 43 0 21.5 0L0 0Z" fill="#3d3236"></path></svg>