<svg id="visual" viewBox="0 0 900 600" width="900" height="600" xmlns="http://www.w3.org/2000/svg" xmlns:xlink="http://www.w3.org/1999/xlink" version="1.1"><rect x="0" y="0" width="900" height="600" fill="#090d10"></rect><path d="M0 430L21.5 445.5C43 461 86 492 128.8 501C171.7 510 214.3 497 257.2 478C300 459 343 434 385.8 436.5C428.7 439 471.3 469 514.2 474.2C557 479.3 600 459.7 642.8 460.7C685.7 461.7 728.3 483.3 771.2 486.3C814 489.3 857 473.7 878.5 465.8L900 458L900 601L878.5 601C857 601 814 601 771.2 601C728.3 601 685.7 601 642.8 601C600 601 557 601 514.2 601C471.3 601 428.7 601 385.8 601C343 601 300 601 257.2 601C214.3 601 171.7 601 128.8 601C86 601 43 601 21.5 601L0 601Z" fill="#3d3236" stroke-linecap="round" stroke-linejoin="miter"></path></svg>